<svg id="workspace" xmlns="http://www.w3.org/2000/svg" xmlns:xlink="http://www.w3.org/1999/xlink" style="text-rendering: geometricPrecision; cursor: auto;"><desc stroke="none" fill="#000000" stroke-width="1px">Created with Snap</desc><defs><linearGradient x1="0" y1="0.5" x2="1" y2="0.5" id="linearGradientSjit9ua0o4c"><stop offset="0%" stop-color="#139187"></stop><stop offset="100%" stop-color="#139187"></stop></linearGradient><linearGradient x1="0" y1="0.5" x2="1" y2="0.5" id="linearGradientSjit9ua0o4f"><stop offset="0%" stop-color="#139187"></stop><stop offset="100%" stop-color="#139187"></stop></linearGradient><linearGradient x1="0" y1="0.5" x2="1" y2="0.5" id="linearGradientSjit9ua0o4i"><stop offset="0%" stop-color="#4bcdd6"></stop><stop offset="100%" stop-color="#4bcdd6"></stop></linearGradient><linearGradient x1="0" y1="0.5" x2="1" y2="0.5" id="linearGradientSjit9ua0o4l"><stop offset="0%" stop-color="#4bcdd6"></stop><stop offset="100%" stop-color="#4bcdd6"></stop></linearGradient><linearGradient x1="0" y1="0.5" x2="1" y2="0.5" id="linearGradientSjit9ua0o4o"><stop offset="0%" stop-color="#17e89f"></stop><stop offset="100%" stop-color="#17e89f"></stop></linearGradient><linearGradient x1="0" y1="0.5" x2="1" y2="0.5" id="linearGradientSjit9ua0o4r"><stop offset="0%" stop-color="#4bcdd6"></stop><stop offset="100%" stop-color="#4bcdd6"></stop></linearGradient><linearGradient x1="0" y1="0.5" x2="1" y2="0.5" id="linearGradientSjit9ua0o4u"><stop offset="0%" stop-color="#17e89f"></stop><stop offset="100%" stop-color="#17e89f"></stop></linearGradient><linearGradient x1="0" y1="0.5" x2="1" y2="0.5" id="linearGradientSjit9ua0o6b"><stop offset="0%" stop-color="#139187"></stop><stop offset="100%" stop-color="#139187"></stop></linearGradient><linearGradient x1="0" y1="0.5" x2="1" y2="0.5" id="linearGradientSjit9ua0o6n"><stop offset="0%" stop-color="#26a6bd"></stop><stop offset="100%" stop-color="#26a6bd"></stop></linearGradient></defs><g class="background-part" stroke="none" fill="#000000" stroke-width="1px"><rect x="0" y="0" width="1046" height="858" fill="rgba(255, 255, 255, 0.25)" style="" stroke="none" stroke-width="1px"></rect></g><g class="selector-part" stroke="none" fill="#000000" stroke-width="1px"></g><g class="selector-part" stroke="none" fill="#000000" stroke-width="1px"><rect x="0" y="0" width="675" height="850" fill="rgba(255, 255, 255, 0)" style="transition: 0.6s;" stroke="none" stroke-width="1px"></rect></g><rect x="0" y="0" width="0" height="0" fill="rgba(168, 202, 236, 0.5)" stroke="#3399ff" style="" stroke-width="1px"></rect><g class="selector-part" transform="matrix(0.9986,0.0523,-0.0523,0.9986,392.5729,299.9922)" stroke="none" fill="#000000" stroke-width="1px"><rect x="0" y="0" width="0" height="0" fill="rgba(255, 255, 255, 0)" style="cursor: move;" stroke="none" stroke-width="1px"></rect></g><g class="svg-clip svg-visible" transform="matrix(2.1376,0.112,-0.112,2.1376,396.8669,305.4925)" style="cursor: move; opacity: 1;" stroke="none" fill="#000000" stroke-width="1px"><rect x="0" y="0" width="106" height="110" fill="none" class="svg-hitbox" style="" stroke="none" stroke-width="1px"></rect><svg width="106.97000420128062" height="110.002" viewBox="-4,-4.717,106.97000420128062,110.002" stroke="none" fill="#000000" stroke-width="1px"><desc stroke="none" fill="#000000" stroke-width="1px">Created with Snap</desc><defs></defs><g stroke="none" fill="#000000" stroke-width="1px"></g><g stroke="none" fill="#000000" stroke-width="1px"></g><g stroke="none" fill="#000000" stroke-width="1px"><path d="M94.273,62.561l-4.411-26.07c1.115-0.836,1.847-2.156,1.847-3.657c0-2.531-2.052-4.583-4.584-4.583  c-0.617,0-1.205,0.126-1.742,0.348L72.105,14.91c1.107-0.986,1.819-2.407,1.819-4.007c0-2.971-2.405-5.379-5.379-5.379  c-1.854,0-3.487,0.939-4.457,2.368L42.86,3.369c-0.359-1.761-1.916-3.086-3.784-3.086c-2.134,0-3.862,1.729-3.862,3.862  c0,0.676,0.19,1.304,0.496,1.857L18.896,23.405c-0.239-0.036-0.479-0.073-0.729-0.073c-2.669,0-4.833,2.164-4.833,4.834  c0,1.788,0.982,3.332,2.426,4.168L7.01,54.818c-0.223-0.031-0.445-0.068-0.677-0.068c-2.669,0-4.833,2.164-4.833,4.834  c0,2.016,1.235,3.74,2.988,4.465L4.162,87.48C2.32,88.164,1,89.921,1,92.001c0,2.67,2.164,4.834,4.833,4.834  c2.442,0,4.441-1.817,4.766-4.172l40.078-2.649c0.705,1.5,2.218,2.545,3.985,2.545c1.021,0,1.947-0.359,2.695-0.941l19.896,6.713  c0.665,1.162,1.903,1.954,3.338,1.954c2.133,0,3.862-1.729,3.862-3.862c0-0.268-0.026-0.525-0.079-0.777l9.846-24.393  c2.121-0.322,3.75-2.138,3.75-4.35C97.973,64.71,96.369,62.904,94.273,62.561z M51.657,39.797L67.333,60  c-0.463,0.561-0.812,1.205-1.024,1.918l-30.252-2.072c-0.182-0.445-0.439-0.847-0.738-1.214l11.368-18.284  c0.597,0.202,1.233,0.317,1.898,0.317C49.711,40.665,50.762,40.344,51.657,39.797z M53.641,37.81c0.324-0.537,0.558-1.133,0.7-1.763  l28.458-1.763c0.188,0.562,0.479,1.07,0.854,1.511L72.047,58.029c-0.16-0.014-0.314-0.049-0.479-0.049  c-0.711,0-1.385,0.146-2.008,0.391L53.641,37.81z M65.459,15.297c0.875,0.616,1.938,0.985,3.088,0.985  c0.373,0,0.739-0.039,1.092-0.111l13.624,14.215c-0.27,0.425-0.471,0.896-0.589,1.399l-28.312,1.762  c-0.17-0.814-0.495-1.572-0.963-2.227L65.459,15.297z M42.395,6.091l20.812,4.433c-0.01,0.128-0.039,0.25-0.039,0.379  c0,0.813,0.193,1.577,0.518,2.268L51.354,29.522c-0.681-0.362-1.44-0.594-2.249-0.664c-0.27-0.042-0.545-0.065-0.827-0.065  c-0.183,0-0.354,0.036-0.531,0.054L41.208,7.362C41.698,7.037,42.097,6.598,42.395,6.091z M37.964,7.824  c0.173,0.052,0.349,0.096,0.531,0.124l6.653,21.823c-1.042,0.72-1.799,1.796-2.151,3.043c-0.03,0.086-0.06,0.171-0.086,0.259l0,0  L22.92,27.378c-0.184-1.117-0.749-2.095-1.559-2.814L37.964,7.824z M22.583,30.117l20.178,5.65c0.224,1.291,0.865,2.436,1.782,3.295  L33.291,57.159c-0.532-0.202-1.104-0.326-1.708-0.326c-0.123,0-0.238,0.026-0.358,0.036l-10.108-24.9  C21.746,31.48,22.257,30.853,22.583,30.117z M18.184,32.997c0.218,0,0.426-0.035,0.636-0.064l10.043,24.74  c-0.918,0.627-1.589,1.569-1.904,2.663l-15.881-1.637c-0.218-1.176-0.866-2.188-1.767-2.897L18.184,32.997z M8.293,87.859  c-0.418-0.248-0.871-0.44-1.358-0.555l0.301-22.979c1.701-0.322,3.07-1.536,3.636-3.137l16.04,1.652  c0.144,0.573,0.38,1.108,0.709,1.58L8.293,87.859z M50.338,87.273l-40.156,2.652c-0.042-0.089-0.092-0.173-0.14-0.259l19.494-23.638  c0.624,0.294,1.312,0.471,2.047,0.471c0.438,0,0.853-0.077,1.256-0.186L50.95,85.775C50.661,86.227,50.446,86.729,50.338,87.273z   M56.46,84.12c-0.55-0.246-1.155-0.39-1.797-0.39c-0.558,0-1.083,0.112-1.573,0.302L35.199,64.844  c0.547-0.621,0.95-1.371,1.12-2.215l29.865,2.047c0.142,0.646,0.397,1.248,0.743,1.787L56.46,84.12z M76.915,95.302l-17.99-6.071  c0.089-0.35,0.15-0.709,0.15-1.086c0.001-0.787-0.222-1.516-0.583-2.154L68.96,68.332c0.78,0.422,1.658,0.684,2.606,0.684  c0.065,0,0.129-0.018,0.191-0.02l6.979,24.056C77.866,93.533,77.209,94.333,76.915,95.302z M82.447,93.052  c-0.305-0.167-0.627-0.303-0.975-0.384l-7.06-24.465c1.251-0.76,2.177-1.988,2.519-3.455L89.5,68.635  c0.389,0.911,1.085,1.647,1.947,2.122L82.447,93.052z M89.275,65.884L76.85,61.99c-0.354-1.24-1.111-2.307-2.146-3.022  l11.295-21.707c-1.457-0.511,0.734,0.156,1.127,0.156c0.035,0,0.068-0.01,0.104-0.01l4.317,25.589  C90.419,63.579,89.575,64.62,89.275,65.884z" fill="url(&quot;#linearGradientSjit9ua0o6n&quot;)" stroke="none" stroke-width="1px"></path></g></svg></g><g class="svg-clip svg-visible" transform="matrix(0.1278,0,0,0.1278,492.0473,385.1113)" style="cursor: move; opacity: 1;" stroke="none" fill="#000000" stroke-width="1px"><rect x="0" y="0" width="187" height="186" fill="none" class="svg-hitbox" style="" stroke="none" stroke-width="1px"></rect><svg width="187.0337218024264" height="186.77" viewBox="-5.131860901213205,-5,187.0337218024264,186.77" class="thumb" stroke="none" fill="#000000" stroke-width="1px"><desc stroke="none" fill="#000000" stroke-width="1px">Created with Snap</desc><defs></defs><g stroke="none" fill="#000000" stroke-width="1px"></g><g stroke="none" fill="#000000" stroke-width="1px"></g><g stroke="none" fill="#000000" stroke-width="1px"><circle cx="88.385" cy="88.385" r="88.385" fill="url(&quot;#linearGradientSjit9ua0o6b&quot;)" stroke="none" stroke-width="1px"></circle></g></svg></g><g class="svg-clip svg-visible" transform="matrix(0.1329,0,0,0.1329,554.5755,512.642)" style="cursor: move; opacity: 1;" stroke="none" fill="#000000" stroke-width="1px"><rect x="0" y="0" width="187" height="186" fill="none" class="svg-hitbox" style="" stroke="none" stroke-width="1px"></rect><svg width="187.0337218024264" height="186.77" viewBox="-5.131860901213205,-5,187.0337218024264,186.77" class="thumb" stroke="none" fill="#000000" stroke-width="1px"><desc stroke="none" fill="#000000" stroke-width="1px">Created with Snap</desc><defs></defs><g stroke="none" fill="#000000" stroke-width="1px"></g><g stroke="none" fill="#000000" stroke-width="1px"></g><g stroke="none" fill="#000000" stroke-width="1px"><circle cx="88.385" cy="88.385" r="88.385" fill="url(&quot;#linearGradientSjit9ua0o4c&quot;)" stroke="none" stroke-width="1px"></circle></g></svg></g><g class="svg-clip svg-visible" transform="matrix(0.1094,0,0,0.1094,398.7675,499.8223)" style="cursor: move; opacity: 1;" stroke="none" fill="#000000" stroke-width="1px"><rect x="0" y="0" width="187" height="186" fill="none" class="svg-hitbox" style="" stroke="none" stroke-width="1px"></rect><svg width="187.0337218024264" height="186.77" viewBox="-5.131860901213205,-5,187.0337218024264,186.77" class="thumb" stroke="none" fill="#000000" stroke-width="1px"><desc stroke="none" fill="#000000" stroke-width="1px">Created with Snap</desc><defs></defs><g stroke="none" fill="#000000" stroke-width="1px"></g><g stroke="none" fill="#000000" stroke-width="1px"></g><g stroke="none" fill="#000000" stroke-width="1px"><circle cx="88.385" cy="88.385" r="88.385" fill="url(&quot;#linearGradientSjit9ua0o4f&quot;)" stroke="none" stroke-width="1px"></circle></g></svg></g><g class="svg-clip svg-visible" transform="matrix(0.1157,0,0,0.1157,427.1801,369.2379)" style="cursor: move; opacity: 1;" stroke="none" fill="#000000" stroke-width="1px"><rect x="0" y="0" width="187" height="186" fill="none" class="svg-hitbox" style="" stroke="none" stroke-width="1px"></rect><svg width="187.0337218024264" height="186.77" viewBox="-5.131860901213205,-5,187.0337218024264,186.77" class="thumb" stroke="none" fill="#000000" stroke-width="1px"><desc stroke="none" fill="#000000" stroke-width="1px">Created with Snap</desc><defs></defs><g stroke="none" fill="#000000" stroke-width="1px"></g><g stroke="none" fill="#000000" stroke-width="1px"></g><g stroke="none" fill="#000000" stroke-width="1px"><circle cx="88.385" cy="88.385" r="88.385" fill="url(&quot;#linearGradientSjit9ua0o4i&quot;)" stroke="none" stroke-width="1px"></circle></g></svg></g><g class="svg-clip svg-visible" transform="matrix(0.1157,0,0,0.1157,499.1801,502.2379)" style="cursor: move; opacity: 1;" stroke="none" fill="#000000" stroke-width="1px"><rect x="0" y="0" width="187" height="186" fill="none" class="svg-hitbox" style="" stroke="none" stroke-width="1px"></rect><svg width="187.0337218024264" height="186.77" viewBox="-5.131860901213205,-5,187.0337218024264,186.77" class="thumb" stroke="none" fill="#000000" stroke-width="1px"><desc stroke="none" fill="#000000" stroke-width="1px">Created with Snap</desc><defs></defs><g stroke="none" fill="#000000" stroke-width="1px"></g><g stroke="none" fill="#000000" stroke-width="1px"></g><g stroke="none" fill="#000000" stroke-width="1px"><circle cx="88.385" cy="88.385" r="88.385" fill="url(&quot;#linearGradientSjit9ua0o4l&quot;)" stroke="none" stroke-width="1px"></circle></g></svg></g><g class="svg-clip svg-visible" transform="matrix(0.1157,0,0,0.1157,452.1801,438.2379)" style="cursor: move; opacity: 1;" stroke="none" fill="#000000" stroke-width="1px"><rect x="0" y="0" width="187" height="186" fill="none" class="svg-hitbox" style="" stroke="none" stroke-width="1px"></rect><svg width="187.0337218024264" height="186.77" viewBox="-5.131860901213205,-5,187.0337218024264,186.77" class="thumb" stroke="none" fill="#000000" stroke-width="1px"><desc stroke="none" fill="#000000" stroke-width="1px">Created with Snap</desc><defs></defs><g stroke="none" fill="#000000" stroke-width="1px"></g><g stroke="none" fill="#000000" stroke-width="1px"></g><g stroke="none" fill="#000000" stroke-width="1px"><circle cx="88.385" cy="88.385" r="88.385" fill="url(&quot;#linearGradientSjit9ua0o4o&quot;)" stroke="none" stroke-width="1px"></circle></g></svg></g><g class="svg-clip svg-visible" transform="matrix(0.1157,0,0,0.1157,588.1801,456.2379)" style="cursor: move; opacity: 1;" stroke="none" fill="#000000" stroke-width="1px"><rect x="0" y="0" width="187" height="186" fill="none" class="svg-hitbox" style="" stroke="none" stroke-width="1px"></rect><svg width="187.0337218024264" height="186.77" viewBox="-5.131860901213205,-5,187.0337218024264,186.77" class="thumb" stroke="none" fill="#000000" stroke-width="1px"><desc stroke="none" fill="#000000" stroke-width="1px">Created with Snap</desc><defs></defs><g stroke="none" fill="#000000" stroke-width="1px"></g><g stroke="none" fill="#000000" stroke-width="1px"></g><g stroke="none" fill="#000000" stroke-width="1px"><circle cx="88.385" cy="88.385" r="88.385" fill="url(&quot;#linearGradientSjit9ua0o4r&quot;)" stroke="none" stroke-width="1px"></circle></g></svg></g><g class="svg-clip svg-visible" transform="matrix(0.1338,0,0,0.1338,537.4851,334.552)" style="cursor: move; opacity: 1;" stroke="none" fill="#000000" stroke-width="1px"><rect x="0" y="0" width="187" height="186" fill="none" class="svg-hitbox" style="" stroke="none" stroke-width="1px"></rect><svg width="187.0337218024264" height="186.77" viewBox="-5.131860901213205,-5,187.0337218024264,186.77" class="thumb" stroke="none" fill="#000000" stroke-width="1px"><desc stroke="none" fill="#000000" stroke-width="1px">Created with Snap</desc><defs></defs><g stroke="none" fill="#000000" stroke-width="1px"></g><g stroke="none" fill="#000000" stroke-width="1px"></g><g stroke="none" fill="#000000" stroke-width="1px"><circle cx="88.385" cy="88.385" r="88.385" fill="url(&quot;#linearGradientSjit9ua0o4u&quot;)" stroke="none" stroke-width="1px"></circle></g></svg></g><g stroke="none" fill="#000000" stroke-width="1px"><rect x="0" y="0" width="0" height="0" fill="rgba(255, 136, 0, 0.1)" stroke="#ff8800" style="" stroke-width="1px"></rect></g><g class="selector-part" transform="matrix(0.9986,0.0523,-0.0523,0.9986,392.5729,299.9922)" stroke="none" fill="#000000" stroke-width="1px"><rect x="0" y="0" width="0" height="0" fill="none" stroke="#2390bb" style="" stroke-width="2px"></rect><g transform="matrix(0.5,0,0,0.5,0,0)" stroke="none" fill="#000000" stroke-width="1px"><svg version="1.1" id="Calque_1" xmlns="http://www.w3.org/2000/svg" xmlns:xlink="http://www.w3.org/1999/xlink" x="221.5" y="-71px" width="28.94px" height="30px" viewBox="0 -15 28.94 30" enable-background="new 0 -15 28.94 30" xml:space="preserve" style="cursor: pointer;" stroke="none" fill="#000000" stroke-width="1px">
<g stroke="none" fill="#000000" stroke-width="1px">
	<path fill="rgba(0, 0, 0, 0)" d="M23.355-9.979c-0.352-0.263-0.712-0.511-1.084-0.739L20.34-7.486c0.317,0.195,0.629,0.414,0.929,0.646
		L23.355-9.979z" style="" stroke="none" stroke-width="1px"></path>
	<path fill="rgba(0, 0, 0, 0)" d="M28.894,0.081L25.092-0.13c0.292,2.317-0.217,4.718-1.539,6.756l-0.037-0.021
		c-0.376,0.583-0.821,1.137-1.335,1.648c-3.808,3.809-9.902,3.942-13.871,0.396C8.282,8.623,8.255,8.602,8.227,8.576
		C8.143,8.498,8.059,8.421,7.976,8.339c-0.052-0.051-0.104-0.1-0.153-0.152C7.8,8.163,7.776,8.14,7.753,8.115
		c-0.084-0.091-0.167-0.18-0.25-0.271v0.002C4.312,4.293,4.087-0.98,6.821-4.782l4.123,4.124l3.401-14.306L0.037-11.566l4.102,4.098
		C-0.064-2.14,0.193,5.554,4.917,10.587l0,0c0.012,0.016,0.023,0.025,0.033,0.037c0.091,0.098,0.181,0.199,0.278,0.293
		c0.021,0.023,0.047,0.043,0.07,0.068c0.075,0.074,0.148,0.146,0.225,0.22c0.051,0.045,0.099,0.086,0.15,0.133
		c0.053,0.047,0.104,0.094,0.156,0.14c0.144,0.13,0.291,0.257,0.439,0.375c0.01,0.012,0.018,0.016,0.027,0.023
		c5.574,4.563,13.804,4.115,18.842-1.194C27.94,7.722,29.185,3.851,28.894,0.081z" style="" stroke="none" stroke-width="1px"></path>
	<path fill="rgba(0, 0, 0, 0)" d="M24.122-3.353l3.544-1.319c-0.426-0.932-0.962-1.826-1.611-2.662L22.88-5.276
		C23.373-4.675,23.79-4.027,24.122-3.353z" style="" stroke="none" stroke-width="1px"></path>
</g>
<desc stroke="none" fill="#000000" stroke-width="1px">Created with Snap</desc><defs></defs><circle cx="14.5" cy="0" r="15" style="" fill="rgba(0, 0, 0, 0)" stroke="none" stroke-width="1px"></circle></svg></g><rect x="118" y="-21" width="0" height="21" fill="rgba(255, 255, 255, 0)" stroke="#2390bb" style="cursor: pointer;" stroke-width="1px"></rect><circle cx="236" cy="245" r="0" fill="#ffffff" stroke="#2390bb" style="cursor: se-resize;" stroke-width="2px"></circle><circle cx="0" cy="245" r="0" fill="#ffffff" stroke="#2390bb" style="cursor: sw-resize;" stroke-width="2px"></circle><circle cx="236" cy="0" r="0" fill="#ffffff" stroke="#2390bb" style="cursor: ne-resize;" stroke-width="2px"></circle><circle cx="0" cy="0" r="0" fill="#ffffff" stroke="#2390bb" style="cursor: nw-resize;" stroke-width="2px"></circle><circle cx="118" cy="245" r="0" fill="#ffffff" stroke="#2390bb" style="cursor: s-resize;" stroke-width="2px"></circle><circle cx="118" cy="0" r="0" fill="#ffffff" stroke="#2390bb" style="cursor: n-resize;" stroke-width="2px"></circle><circle cx="0" cy="123" r="0" fill="#ffffff" stroke="#2390bb" style="cursor: w-resize;" stroke-width="2px"></circle><circle cx="236" cy="123" r="0" fill="#ffffff" stroke="#2390bb" style="cursor: e-resize;" stroke-width="2px"></circle><path stroke="#ff0000" fill="none" style="" stroke-width="3px"></path><line x1="0" x2="0" y1="0" y2="0" fill="rgba(255, 255, 255, 0)" stroke="#2390bb" style="" stroke-width="1px"></line><line x1="0" x2="0" y1="0" y2="0" fill="rgba(255, 255, 255, 0)" stroke="#2390bb" style="" stroke-width="1px"></line><circle cx="0" cy="0" r="0" fill="#ff0000" stroke="#2390bb" style="cursor: pointer;" stroke-width="2px"></circle><circle cx="0" cy="0" r="0" fill="#ffa500" stroke="#2390bb" style="cursor: pointer;" stroke-width="2px"></circle><circle cx="0" cy="0" r="0" fill="#ffa500" stroke="#2390bb" style="cursor: pointer;" stroke-width="2px"></circle><circle cx="0" cy="0" r="0" fill="#ff0000" stroke="#2390bb" style="cursor: pointer;" stroke-width="2px"></circle><g style="cursor: pointer; visibility: hidden; opacity: 0;" transform="matrix(1,0,0,1,-50,-15)" stroke="none" fill="#000000" stroke-width="1px"><rect x="0" y="0" width="30" height="30" fill="#2390bb" rx="5" ry="5" style="" stroke="none" stroke-width="1px"></rect><rect x="6" y="6" width="18" height="4" style="" fill="#ffffff" stroke="none" stroke-width="1px"></rect><rect x="6" y="13" width="18" height="4" fill="#ffffff" style="" stroke="none" stroke-width="1px"></rect><rect x="6" y="20" width="18" height="4" fill="#ffffff" style="" stroke="none" stroke-width="1px"></rect></g></g></svg>